<svg id="logo" data-name="logo" xmlns="http://www.w3.org/2000/svg" viewBox="0 0 100 100">
<defs>
<style>
.cls-1{fill:#933;}
.cls-2{fill:#f63;}
.cls-3{fill:#fff;}
.cls-4{fill:#401a0d;stroke:#000;}
.cls-4,
.cls-5{stroke-miterlimit:10;}
.cls-5{fill:none;stroke:#fff;stroke-linecap:round;}
</style>
</defs>
<title>logo</title>
<path class="cls-1" d="M50.12,98.25a3.15,3.15,0,0,1-3.18-2.68A4.23,4.23,0,0,0,39,94.31a3.1,3.1,0,0,1-2.79,1.75,3.46,3.46,0,0,1-2.57-1.16A3.11,3.11,0,0,1,33,92.35,4.17,4.17,0,0,0,32,89a4.37,4.37,0,0,0-3.27-1.5,4.16,4.16,0,0,0-2.92,1.22,3.13,3.13,0,0,1-2.22,1,3.43,3.43,0,0,1-2.83-1.6,3.09,3.09,0,0,1-.1-3.09,4.12,4.12,0,0,0-.17-4.08,4.28,4.28,0,0,0-3.6-2,4.15,4.15,0,0,0-1.89.46,3.36,3.36,0,0,1-1.48.36,3.3,3.3,0,0,1-3-2,3.07,3.07,0,0,1,.7-3.46,4.23,4.23,0,0,0-3-7.19,5.14,5.14,0,0,0-.66,0,3.27,3.27,0,0,1-.54,0A3.17,3.17,0,0,1,4,64.58,3.1,3.1,0,0,1,5.69,61a4.23,4.23,0,0,0-1.26-7.91,3.23,3.23,0,0,1,0-6.37,4.23,4.23,0,0,0,1.26-7.91A3.09,3.09,0,0,1,4,35.17a3.18,3.18,0,0,1,3.07-2.48,3.27,3.27,0,0,1,.54,0,5.14,5.14,0,0,0,.66.05,4.23,4.23,0,0,0,3-7.19,3,3,0,0,1-.69-3.46,3.29,3.29,0,0,1,3-2.05,3.24,3.24,0,0,1,1.48.37,4.2,4.2,0,0,0,5.49-1.59,4.12,4.12,0,0,0,.17-4.08,3.08,3.08,0,0,1,.1-3.08,3.42,3.42,0,0,1,2.83-1.61,3.13,3.13,0,0,1,2.22.95,4.12,4.12,0,0,0,2.92,1.22A4.37,4.37,0,0,0,32,10.76,4.15,4.15,0,0,0,33,7.41a3.12,3.12,0,0,1,.69-2.56A3.45,3.45,0,0,1,36.24,3.7,3.09,3.09,0,0,1,39,5.44a4.22,4.22,0,0,0,7.91-1.25,3.22,3.22,0,0,1,6.36,0,4.19,4.19,0,0,0,4.2,3.52,4.16,4.16,0,0,0,3.72-2.27A3.08,3.08,0,0,1,64,3.7a3.41,3.41,0,0,1,2.56,1.15,3.09,3.09,0,0,1,.7,2.56,4.12,4.12,0,0,0,1,3.35,4.36,4.36,0,0,0,3.26,1.5A4.13,4.13,0,0,0,74.41,11a3.13,3.13,0,0,1,2.21-.95,3.39,3.39,0,0,1,2.83,1.61,3.05,3.05,0,0,1,.1,3.08,4.12,4.12,0,0,0,.18,4.08,4.2,4.2,0,0,0,5.49,1.59,3.24,3.24,0,0,1,1.48-.37,3.3,3.3,0,0,1,3,2.05A3.06,3.06,0,0,1,89,25.59a4.23,4.23,0,0,0,3,7.19,4.87,4.87,0,0,0,.65-.05,3.44,3.44,0,0,1,.54,0,3.16,3.16,0,0,1,3.07,2.48,3.1,3.1,0,0,1-1.64,3.61,4.23,4.23,0,0,0,1.25,7.91,3.23,3.23,0,0,1,0,6.37A4.23,4.23,0,0,0,94.56,61a3.1,3.1,0,0,1,1.64,3.61,3.15,3.15,0,0,1-3.07,2.48,3.44,3.44,0,0,1-.54,0,4.87,4.87,0,0,0-.65,0,4.23,4.23,0,0,0-3,7.19,3.07,3.07,0,0,1,.69,3.46,3.28,3.28,0,0,1-3,2,3.36,3.36,0,0,1-1.48-.36,4.16,4.16,0,0,0-1.9-.46,4.28,4.28,0,0,0-3.59,2A4.12,4.12,0,0,0,79.55,85a3.07,3.07,0,0,1-.1,3.09,3.41,3.41,0,0,1-2.83,1.6,3.13,3.13,0,0,1-2.21-1,4.17,4.17,0,0,0-2.93-1.22A4.36,4.36,0,0,0,68.22,89a4.14,4.14,0,0,0-1,3.36,3.08,3.08,0,0,1-.7,2.55A3.42,3.42,0,0,1,64,96.06a3.08,3.08,0,0,1-2.79-1.75,4.23,4.23,0,0,0-7.92,1.26A3.14,3.14,0,0,1,50.12,98.25Z"/>
<path d="M50.12,2a2.62,2.62,0,0,1,2.69,2.27A4.68,4.68,0,0,0,57.5,8.21a4.63,4.63,0,0,0,4.16-2.54A2.57,2.57,0,0,1,64,4.2a2.9,2.9,0,0,1,2.19,1,2.59,2.59,0,0,1,.57,2.15,4.67,4.67,0,0,0,1.07,3.76,4.91,4.91,0,0,0,3.64,1.67,4.67,4.67,0,0,0,3.28-1.36,2.63,2.63,0,0,1,1.86-.81A2.92,2.92,0,0,1,79,12a2.59,2.59,0,0,1,.08,2.6,4.6,4.6,0,0,0,.2,4.57,4.78,4.78,0,0,0,4,2.27,4.69,4.69,0,0,0,2.12-.51,2.92,2.92,0,0,1,1.26-.31,2.78,2.78,0,0,1,2.49,1.75,2.57,2.57,0,0,1-.59,2.91,4.73,4.73,0,0,0,3.34,8,6.11,6.11,0,0,0,.73-.05,2.45,2.45,0,0,1,.46,0,2.65,2.65,0,0,1,2.59,2.1,2.62,2.62,0,0,1-1.39,3.05,4.73,4.73,0,0,0,1.4,8.85,2.73,2.73,0,0,1,0,5.38,4.72,4.72,0,0,0-1.4,8.84,2.73,2.73,0,0,1-1.2,5.15l-.46,0a4.59,4.59,0,0,0-.73-.06,4.73,4.73,0,0,0-3.34,8,2.57,2.57,0,0,1,.59,2.91,2.66,2.66,0,0,1-3.75,1.44,4.69,4.69,0,0,0-2.12-.51,4.77,4.77,0,0,0-4,2.28,4.58,4.58,0,0,0-.2,4.56,2.59,2.59,0,0,1-.08,2.6,2.92,2.92,0,0,1-2.41,1.37,2.63,2.63,0,0,1-1.86-.81A4.71,4.71,0,0,0,71.48,87a4.91,4.91,0,0,0-3.64,1.67,4.67,4.67,0,0,0-1.07,3.76,2.59,2.59,0,0,1-.57,2.15,2.91,2.91,0,0,1-2.19,1,2.58,2.58,0,0,1-2.35-1.48,4.62,4.62,0,0,0-4.16-2.53,4.68,4.68,0,0,0-4.69,3.93,2.73,2.73,0,0,1-5.38,0,4.72,4.72,0,0,0-8.84-1.4,2.58,2.58,0,0,1-2.35,1.48,2.91,2.91,0,0,1-2.19-1,2.59,2.59,0,0,1-.58-2.15,4.6,4.6,0,0,0-1.07-3.76A4.88,4.88,0,0,0,28.76,87a4.71,4.71,0,0,0-3.27,1.36,2.64,2.64,0,0,1-1.87.81,2.9,2.9,0,0,1-2.4-1.37,2.59,2.59,0,0,1-.08-2.6,4.61,4.61,0,0,0-.2-4.56,4.77,4.77,0,0,0-4-2.28,4.68,4.68,0,0,0-2.11.51,2.82,2.82,0,0,1-1.26.31,2.78,2.78,0,0,1-2.49-1.75,2.57,2.57,0,0,1,.59-2.91,4.73,4.73,0,0,0-3.34-8,4.49,4.49,0,0,0-.73.06l-.47,0a2.73,2.73,0,0,1-1.19-5.15,4.72,4.72,0,0,0-1.4-8.84,2.73,2.73,0,0,1,0-5.38,4.73,4.73,0,0,0,1.4-8.85,2.73,2.73,0,0,1,1.19-5.15,2.56,2.56,0,0,1,.47,0,6,6,0,0,0,.73.05,4.73,4.73,0,0,0,3.34-8,2.57,2.57,0,0,1-.59-2.91,2.78,2.78,0,0,1,2.49-1.75,3,3,0,0,1,1.26.31,4.68,4.68,0,0,0,2.11.51,4.78,4.78,0,0,0,4-2.27,4.63,4.63,0,0,0,.2-4.57,2.59,2.59,0,0,1,.08-2.6,2.9,2.9,0,0,1,2.4-1.37,2.64,2.64,0,0,1,1.87.81,4.66,4.66,0,0,0,3.27,1.36,4.88,4.88,0,0,0,3.64-1.67,4.6,4.6,0,0,0,1.07-3.76,2.59,2.59,0,0,1,.58-2.15,2.9,2.9,0,0,1,2.19-1,2.57,2.57,0,0,1,2.35,1.47,4.72,4.72,0,0,0,8.84-1.4A2.63,2.63,0,0,1,50.12,2m0-1a3.62,3.62,0,0,0-3.67,3.1h0a3.69,3.69,0,0,1-3.7,3.11,3.65,3.65,0,0,1-3.28-2h0a3.56,3.56,0,0,0-3.23-2,3.7,3.7,0,0,0-3.76,4.28h0a3.73,3.73,0,0,1-3.72,4.28,3.62,3.62,0,0,1-2.57-1.08h0a3.65,3.65,0,0,0-2.57-1.09A3.74,3.74,0,0,0,20.25,15h0a3.72,3.72,0,0,1-5,5h0a3.8,3.8,0,0,0-1.7-.42,3.75,3.75,0,0,0-2.62,6.36h0a3.73,3.73,0,0,1-2.62,6.34,4,4,0,0,1-.59,0h0a4.3,4.3,0,0,0-.61-.05,3.74,3.74,0,0,0-1.66,7h0a3.72,3.72,0,0,1-1.1,7h0a3.73,3.73,0,0,0,0,7.35h0a3.73,3.73,0,0,1,1.1,7h0a3.73,3.73,0,0,0,1.66,7,4.26,4.26,0,0,0,.61,0h0a4,4,0,0,1,.59,0,3.73,3.73,0,0,1,2.62,6.34h0a3.75,3.75,0,0,0,2.62,6.36,3.8,3.8,0,0,0,1.7-.42h0a3.85,3.85,0,0,1,1.67-.4,3.75,3.75,0,0,1,3.33,5.4h0a3.74,3.74,0,0,0,3.37,5.41,3.65,3.65,0,0,0,2.57-1.09h0A3.62,3.62,0,0,1,28.76,88a3.73,3.73,0,0,1,3.72,4.29h0a3.7,3.7,0,0,0,3.76,4.28,3.58,3.58,0,0,0,3.23-2h0a3.63,3.63,0,0,1,3.28-2,3.68,3.68,0,0,1,3.7,3.1h0a3.73,3.73,0,0,0,7.35,0h0a3.68,3.68,0,0,1,3.7-3.1,3.62,3.62,0,0,1,3.27,2h0a3.6,3.6,0,0,0,3.24,2,3.7,3.7,0,0,0,3.75-4.28h0A3.74,3.74,0,0,1,71.48,88a3.65,3.65,0,0,1,2.58,1.08h0a3.62,3.62,0,0,0,2.56,1.09A3.74,3.74,0,0,0,80,84.75h0a3.75,3.75,0,0,1,3.32-5.4,3.86,3.86,0,0,1,1.68.4h0a3.71,3.71,0,0,0,4.32-5.94h0a3.73,3.73,0,0,1,2.62-6.34,3.9,3.9,0,0,1,.58,0h0a4.35,4.35,0,0,0,.61,0,3.73,3.73,0,0,0,1.66-7h0a3.73,3.73,0,0,1,1.11-7h0a3.73,3.73,0,0,0,0-7.35h0a3.72,3.72,0,0,1-1.11-7h0a3.73,3.73,0,0,0-1.66-7,4.42,4.42,0,0,0-.61.05h0a3.86,3.86,0,0,1-.58,0,3.73,3.73,0,0,1-2.62-6.34h0A3.71,3.71,0,0,0,85,20h0a3.72,3.72,0,0,1-5-5h0a3.74,3.74,0,0,0-3.38-5.41,3.62,3.62,0,0,0-2.56,1.09h0a3.65,3.65,0,0,1-2.58,1.08,3.73,3.73,0,0,1-3.72-4.28h0A3.7,3.7,0,0,0,64,3.2a3.59,3.59,0,0,0-3.24,2h0a3.64,3.64,0,0,1-3.27,2A3.69,3.69,0,0,1,53.8,4.1h0A3.63,3.63,0,0,0,50.12,1Z"/>
<circle class="cls-2" cx="50.07" cy="49.82" r="42.78" transform="translate(-7.13 91.26) rotate(-80.78)"/>
<path d="M50.07,7.54A42.28,42.28,0,1,1,7.79,49.82,42.33,42.33,0,0,1,50.07,7.54m0-1A43.28,43.28,0,1,0,93.35,49.82,43.28,43.28,0,0,0,50.07,6.54Z"/>
<circle class="cls-1" cx="50.07" cy="49.82" r="36.74" transform="translate(-10.11 12.84) rotate(-13.28)"/>
<path d="M50.07,13.58A36.24,36.24,0,1,1,13.83,49.82,36.28,36.28,0,0,1,50.07,13.58m0-1A37.24,37.24,0,1,0,87.31,49.82,37.24,37.24,0,0,0,50.07,12.58Z"/>
<path class="cls-3" d="M59.13,46.3a5.54,5.54,0,1,1,5.53-5.54A5.54,5.54,0,0,1,59.13,46.3Z"/>
<path d="M59.13,35.72a5,5,0,1,1-5,5,5,5,0,0,1,5-5m0-1a6,6,0,1,0,6,6,6,6,0,0,0-6-6Z"/>
<path class="cls-3" d="M41,46.3a5.54,5.54,0,1,1,5.54-5.54A5.55,5.55,0,0,1,41,46.3Z"/>
<path d="M41,35.72a5,5,0,1,1-5,5,5,5,0,0,1,5-5m0-1a6,6,0,1,0,6,6,6,6,0,0,0-6-6Z"/>
<path class="cls-3" d="M41,64.42a5.54,5.54,0,1,1,5.54-5.54A5.55,5.55,0,0,1,41,64.42Z"/>
<path d="M41,53.84a5,5,0,1,1-5,5,5,5,0,0,1,5-5m0-1a6,6,0,1,0,6,6,6,6,0,0,0-6-6Z"/>
<path class="cls-3" d="M59.13,64.42a5.54,5.54,0,1,1,5.53-5.54A5.55,5.55,0,0,1,59.13,64.42Z"/>
<path d="M59.13,53.84a5,5,0,1,1-5,5,5,5,0,0,1,5-5m0-1a6,6,0,1,0,6,6,6,6,0,0,0-6-6Z"/>
<path class="cls-4" d="M58.12,59.37a1.47,1.47,0,0,1-1.06-.44L41,42.83a1.5,1.5,0,1,1,2.12-2.12l16.1,16.1a1.49,1.49,0,0,1,0,2.12A1.47,1.47,0,0,1,58.12,59.37Z"/>
<path class="cls-4" d="M42,59.37A1.45,1.45,0,0,1,41,58.93a1.49,1.49,0,0,1,0-2.12l16.1-16.1a1.5,1.5,0,1,1,2.12,2.12l-16.1,16.1A1.48,1.48,0,0,1,42,59.37Z"/>
<path class="cls-5" d="M79,52.17A26.88,26.88,0,0,1,72.29,69a27.41,27.41,0,0,1-15.82,8.9"/>
<path class="cls-5" d="M43.66,21.72a26.91,26.91,0,0,0-15.81,8.9,27.38,27.38,0,0,0-6.73,16.85"/>
</svg>